# xmcd
#
# Track frame offsets: 
#        150
#        11699
#        23529
#        34099
#        45992
#        59590
#        70641
#        84157
#        93824
#        105243
#        115972
#        124884
#        139219
#
# Disc length: 3256 seconds
#
# Revision: 4
# Processed by: cddbd v1.5.2PL0 Copyright (c) Steve Scherf et al.
# Submitted via: ExactAudioCopy v1.0b3
#
DISCID=990cb60d
DTITLE=Black Keys - The Big Come Up
DYEAR=2002
DGENRE=Rock
TTITLE0=Busted
TTITLE1=Do the Rump
TTITLE2=I’ll Be Your Man
TTITLE3=Countdown
TTITLE4=The Breaks
TTITLE5=Run Me Down
TTITLE6=Leavin’ Trunk
TTITLE7=Heavy Soul
TTITLE8=She Said, She Said
TTITLE9=Them Eyes
TTITLE10=Yearnin’
TTITLE11=Brooklyn Bound
TTITLE12=240 Years before Your Time
EXTD=All songs by Auerbach/Carney, except "Do the Rump" (Junior Kimbro
EXTD=ugh), "She Said, She Said" (Lennon/McCartney) and "Leavin' Trunk" (
EXTD=trad.).\nDan Auerbach: triplofonic guitar, vocals\nPatrick Carney
EXTD=: broke beat kit\nGabe Fulvimar: Moog bass (4, 5, 8, 9]\nRecorded
EXTD=at Synth Etiquette Analog Sound, Akron US-OH, 2002-01/02.\nProdu
EXTD=ced by Patrick Carney.\nCD: Alive Records 0044-2 (2002-05-14), UP
EXTD=C 095081004429.
EXTT0=
EXTT1=
EXTT2=
EXTT3=
EXTT4=
EXTT5=
EXTT6=
EXTT7=
EXTT8=
EXTT9=
EXTT10=
EXTT11=
EXTT12=
PLAYORDER=
